<?xml version="1.0" standalone="no"?><!DOCTYPE svg PUBLIC "-//W3C//DTD SVG 1.1//EN" "http://www.w3.org/Graphics/SVG/1.1/DTD/svg11.dtd"><svg t="1529637918802" class="icon" style="" viewBox="0 0 1024 1024" version="1.1" xmlns="http://www.w3.org/2000/svg" p-id="1419" xmlns:xlink="http://www.w3.org/1999/xlink" width="50" height="50"><defs><style type="text/css"></style></defs><path d="M883.392 960H227.2a43.2 43.2 0 0 1-43.712-42.56v-149.12H96v-170.24h87.488V427.648H96V257.408h87.488V108.352c0-23.488 19.584-42.56 43.712-42.56h656.192c24.192 0 43.776 19.072 43.776 42.56v809.088a43.2 43.2 0 0 1-43.776 42.56z m0-809.088a43.264 43.264 0 0 0-43.968-42.56h-571.52A43.264 43.264 0 0 0 224 150.912V874.88c0 23.552 19.712 42.624 43.968 42.624h571.52c24.256 0 43.904-19.072 43.904-42.624V151.04z" fill="#8a8a8a" p-id="1420"></path><path d="M336 747.072a21.312 21.312 0 1 1 0-42.56h438.656a21.312 21.312 0 1 1 0 42.56H336z m0-212.928a21.312 21.312 0 0 1 0-42.56h438.656a21.312 21.312 0 1 1 0 42.56H336z m0-212.864a21.312 21.312 0 1 1 0-42.624h263.68a21.312 21.312 0 1 1 0 42.624H336z" fill="#8a8a8a" p-id="1421"></path></svg>