<?xml version="1.0" standalone="no"?><!DOCTYPE svg PUBLIC "-//W3C//DTD SVG 1.1//EN" "http://www.w3.org/Graphics/SVG/1.1/DTD/svg11.dtd"><svg t="1525177930587" class="icon" style="" viewBox="0 0 1024 1024" version="1.1" xmlns="http://www.w3.org/2000/svg" p-id="10465" xmlns:xlink="http://www.w3.org/1999/xlink" width="200" height="200"><defs><style type="text/css"></style></defs><path d="M544.6 835.7V447.3h-63.8v388.5l-89.1-89.1-45.1 45.1L512.8 958 679 791.8l-45.1-45.1-89.3 89z m0 0" fill="" p-id="10466"></path><path d="M765.9 288.4C750.5 162.2 643.1 64.3 512.7 64.3s-237.8 97.9-253.2 224.1c-108.1 7.2-193.6 96.9-193.6 206.8 0 114.6 92.9 207.4 207.4 207.4H385v-63.8H273.4c-79.2 0-143.6-64.4-143.6-143.6 0-75.2 58.8-138.1 134-143.1l52.7-3.5 6.4-52.5c11.7-95.8 93.3-168 189.9-168 96.6 0 178.1 72.2 189.9 168l6.4 52.5 52.7 3.5c75.1 5 134 67.8 134 143.1 0 79.2-64.4 143.6-143.6 143.6H640.4v63.8h111.7c114.6 0 207.4-92.9 207.4-207.4 0-110-85.5-199.7-193.6-206.8z m0 0" fill="" p-id="10467"></path></svg>