<?xml version="1.0" standalone="no"?><!DOCTYPE svg PUBLIC "-//W3C//DTD SVG 1.1//EN" "http://www.w3.org/Graphics/SVG/1.1/DTD/svg11.dtd"><svg t="1525177484680" class="icon" style="" viewBox="0 0 1024 1024" version="1.1" xmlns="http://www.w3.org/2000/svg" p-id="6639" xmlns:xlink="http://www.w3.org/1999/xlink" width="200" height="200"><defs><style type="text/css"></style></defs><path d="M425.6 403.2C208 403.2 32 326.4 32 233.6v169.6c0 92.8 176 169.6 393.6 169.6s393.6-76.8 393.6-169.6V233.6c3.2 92.8-176 169.6-393.6 169.6z" p-id="6640"></path><path d="M32 201.6a393.6 169.6 0 1 0 787.2 0 393.6 169.6 0 1 0-787.2 0Z" p-id="6641"></path><path d="M742.4 787.2c0-16 9.6-28.8 19.2-35.2-6.4-3.2-12.8-3.2-19.2-3.2-35.2 0-60.8 28.8-60.8 67.2 0 35.2 28.8 67.2 60.8 67.2 35.2 0 60.8-28.8 60.8-67.2-6.4 6.4-16 12.8-25.6 12.8-19.2-3.2-35.2-19.2-35.2-41.6z" p-id="6642"></path><path d="M972.8 777.6c-38.4-51.2-131.2-137.6-230.4-137.6-102.4 0-195.2 86.4-230.4 137.6-9.6 12.8-12.8 25.6-12.8 38.4 0 12.8 6.4 25.6 12.8 38.4 38.4 51.2 131.2 137.6 230.4 137.6 102.4 0 192-86.4 230.4-137.6 9.6-12.8 12.8-25.6 12.8-38.4 0-12.8-3.2-25.6-12.8-38.4z m-230.4 147.2c-57.6 0-102.4-48-102.4-112s44.8-112 102.4-112c57.6 0 102.4 48 102.4 112s-44.8 112-102.4 112z" p-id="6643"></path><path d="M739.2 608c25.6 0 54.4 6.4 80 12.8 0-6.4 3.2-12.8 3.2-19.2v-169.6c0 92.8-176 169.6-393.6 169.6C208 604.8 32 528 32 435.2v169.6c0 92.8 176 169.6 393.6 169.6h41.6c44.8-64 153.6-166.4 272-166.4z" p-id="6644"></path><path d="M467.2 860.8c-9.6-12.8-16-28.8-16-44.8 0-3.2 0-6.4 3.2-9.6h-25.6C208 806.4 32 732.8 32 640v169.6c0 92.8 176 169.6 393.6 169.6 51.2 0 99.2-3.2 144-12.8-44.8-35.2-80-76.8-102.4-105.6z" p-id="6645"></path></svg>