<?xml version="1.0" standalone="no"?><!DOCTYPE svg PUBLIC "-//W3C//DTD SVG 1.1//EN" "http://www.w3.org/Graphics/SVG/1.1/DTD/svg11.dtd"><svg t="1528770588511" class="icon" style="" viewBox="0 0 1024 1024" version="1.1" xmlns="http://www.w3.org/2000/svg" p-id="2287" xmlns:xlink="http://www.w3.org/1999/xlink" width="200" height="200"><defs><style type="text/css"></style></defs><path d="M279.347 84.924c-112.503 0-204.254 90.658-204.254 204.254 0 112.503 91.75 204.254 204.254 204.254s204.254-91.75 204.254-204.254c0-113.596-90.658-204.254-204.254-204.254v0zM279.347 435.541c-80.828 0-147.456-65.536-147.456-147.456 0-80.828 65.536-147.456 147.456-147.456s147.456 65.536 147.456 147.456c0 81.92-65.536 147.456-147.456 147.456v0zM744.653 493.431c112.503 0 204.254-91.75 204.254-204.254s-91.75-204.254-204.254-204.254c-112.503 0-204.254 91.75-204.254 204.254 0 112.503 90.658 204.254 204.254 204.254v0zM744.653 141.722c80.828 0 147.456 65.536 147.456 147.456 0 80.828-65.536 147.456-147.456 147.456s-147.456-65.536-147.456-147.456c0-81.92 65.536-147.456 147.456-147.456v0zM279.347 550.229c-112.503 0-204.254 91.75-204.254 204.254s91.75 204.254 204.254 204.254 204.254-91.75 204.254-204.254c0-112.503-90.658-204.254-204.254-204.254v0zM279.347 900.847c-80.828 0-147.456-65.536-147.456-147.456s65.536-147.456 147.456-147.456 147.456 65.536 147.456 147.456-65.536 147.456-147.456 147.456v0zM540.399 754.483c0 112.503 91.75 204.254 204.254 204.254 112.503 0 204.254-91.75 204.254-204.254 0-112.503-91.75-204.254-204.254-204.254-113.596 0-204.254 91.75-204.254 204.254v0zM540.399 754.483z" p-id="2288"></path></svg>