<?xml version="1.0" standalone="no"?><!DOCTYPE svg PUBLIC "-//W3C//DTD SVG 1.1//EN" "http://www.w3.org/Graphics/SVG/1.1/DTD/svg11.dtd"><svg t="1528771282633" class="icon" style="" viewBox="0 0 1024 1024" version="1.1" xmlns="http://www.w3.org/2000/svg" p-id="14467" xmlns:xlink="http://www.w3.org/1999/xlink" width="200" height="200"><defs><style type="text/css"></style></defs><path d="M903.32473 708.75687l19.193633-455.656836a127.95755 127.95755 0 1 0-153.549061-145.743649l-391.294188 35.572198A191.936325 191.936325 0 1 0 181.132317 383.87265l15.098991 135.379088a255.9151 255.9151 0 1 0 305.690587 319.893875L703.838909 870.879086a159.946938 159.946938 0 1 0 199.485821-162.122216zM863.785847 959.681626a95.968163 95.968163 0 0 1 0-191.936326h5.118302a95.968163 95.968163 0 0 1-5.118302 191.936326z m-25.59151-858.595161A63.978775 63.978775 0 1 1 895.775235 191.936325h-2.687109a63.978775 63.978775 0 0 1-31.605515-9.852731 63.978775 63.978775 0 0 1-17.914057-17.018354 63.978775 63.978775 0 0 1-11.516179-31.093685v-5.75809a63.978775 63.978775 0 0 1 5.758089-27.127zM192.008709 319.893875a127.95755 127.95755 0 1 1 127.95755-139.473729v11.516179a129.237126 129.237126 0 0 1-82.53262 119.512352 126.677975 126.677975 0 0 1-31.349599 7.677453A127.95755 127.95755 0 0 1 192.008709 319.893875z m253.611864 477.793492a190.144919 190.144919 0 0 1-7.677453 31.221642A191.936325 191.936325 0 1 1 255.987484 575.808975h10.876392a190.784707 190.784707 0 0 1 100.190762 35.316284 189.633089 189.633089 0 0 1 45.296972 45.296973A190.784707 190.784707 0 0 1 447.923809 765.69798V767.7453a191.936325 191.936325 0 0 1-2.303236 29.942067z m12.795755-186.818023l61.547582-61.547581a159.946938 159.946938 0 1 0-45.296973-45.296973l-61.803496 61.547581a254.635525 254.635525 0 0 0-153.549061-53.742171l-14.58716-135.379088A191.936325 191.936325 0 0 0 383.945034 206.651443l392.061934-35.700156a127.95755 127.95755 0 0 0 83.172407 79.333681L839.473913 705.557931a160.074895 160.074895 0 0 0-125.526357 102.36604L511.902584 775.678669V767.7453a254.763482 254.763482 0 0 0-53.742171-156.875956zM511.902584 415.862038a97.119781 97.119781 0 1 1 9.468859 41.330288A96.09612 96.09612 0 0 1 511.902584 415.862038z" p-id="14468"></path></svg>