<?xml version="1.0" standalone="no"?><!DOCTYPE svg PUBLIC "-//W3C//DTD SVG 1.1//EN" "http://www.w3.org/Graphics/SVG/1.1/DTD/svg11.dtd"><svg t="1528771361739" class="icon" style="" viewBox="0 0 1024 1024" version="1.1" xmlns="http://www.w3.org/2000/svg" p-id="16287" xmlns:xlink="http://www.w3.org/1999/xlink" width="200" height="200"><defs><style type="text/css"></style></defs><path d="M848.32 382.293333l-116.778667 175.082667a126.08 126.08 0 0 1-93.930666 210.154667 126.08 126.08 0 0 1-108.650667-190.101334l-79.509333-79.530666a125.397333 125.397333 0 0 1-64.042667 17.450666 125.738667 125.738667 0 0 1-41.536-6.997333l-116.736 175.082667a126.101333 126.101333 0 1 1-52.437333-34.986667l116.714666-175.104a126.101333 126.101333 0 1 1 202.602667-20.032l79.530667 79.488a125.248 125.248 0 0 1 64.042666-17.450667c14.549333 0 28.501333 2.453333 41.536 6.976l116.714667-175.061333a126.08 126.08 0 1 1 93.930667 41.984 125.568 125.568 0 0 1-41.450667-6.954667z" p-id="16288"></path></svg>