<?xml version="1.0" standalone="no"?><!DOCTYPE svg PUBLIC "-//W3C//DTD SVG 1.1//EN" "http://www.w3.org/Graphics/SVG/1.1/DTD/svg11.dtd"><svg t="1528771500154" class="icon" style="" viewBox="0 0 1024 1024" version="1.1" xmlns="http://www.w3.org/2000/svg" p-id="16656" xmlns:xlink="http://www.w3.org/1999/xlink" width="200" height="200"><defs><style type="text/css"></style></defs><path d="M146.773333 556.373333c3.413333 0 3.413333 0 0 0 17.066667 0 30.72-10.24 30.72-27.306666 0-10.24 3.413333-20.48 3.413334-30.72 23.893333-126.293333 116.053333-225.28 232.106666-262.826667 17.066667 37.546667 58.026667 64.853333 102.4 64.853333 61.44 0 112.64-51.2 112.64-112.64s-51.2-112.64-112.64-112.64c-61.44 0-109.226667 47.786667-112.64 105.813334-139.946667 44.373333-245.76 160.426667-273.066666 310.613333-3.413333 10.24-3.413333 23.893333-3.413334 34.133333-6.826667 13.653333 6.826667 27.306667 20.48 30.72zM689.493333 873.813333c-6.826667-13.653333-23.893333-17.066667-37.546666-10.24-10.24 3.413333-17.066667 6.826667-27.306667 10.24-119.466667 44.373333-249.173333 13.653333-341.333333-68.266666 23.893333-34.133333 27.306667-81.92 3.413333-119.466667-30.72-54.613333-102.4-75.093333-157.013333-40.96-54.613333 30.72-75.093333 102.4-40.96 157.013333 30.72 51.2 98.986667 71.68 150.186666 44.373334 105.813333 98.986667 262.826667 133.12 406.186667 81.92 10.24-3.413333 20.48-6.826667 30.72-13.653334 17.066667-6.826667 23.893333-23.893333 13.653333-40.96 3.413333 0 0 0 0 0zM897.706667 651.946667c34.133333-143.36-13.653333-293.546667-129.706667-392.533334-10.24-6.826667-17.066667-13.653333-27.306667-20.48-13.653333-10.24-30.72-6.826667-40.96 6.826667v3.413333c-6.826667 13.653333-3.413333 30.72 10.24 37.546667 6.826667 6.826667 17.066667 10.24 23.893334 17.066667 98.986667 81.92 136.533333 208.213333 112.64 327.68-40.96-3.413333-85.333333 17.066667-105.813334 58.026666-30.72 54.613333-13.653333 122.88 40.96 157.013334 54.613333 30.72 122.88 13.653333 157.013334-40.96 23.893333-54.613333 10.24-122.88-40.96-153.6z" p-id="16657"></path><path d="M651.946667 471.04H375.466667c-17.066667 0-30.72-13.653333-30.72-30.72s13.653333-30.72 30.72-30.72h276.48c17.066667 0 30.72 13.653333 30.72 30.72-3.413333 17.066667-17.066667 30.72-30.72 30.72zM651.946667 587.093333H375.466667c-17.066667 0-30.72-13.653333-30.72-30.72s13.653333-30.72 30.72-30.72h276.48c17.066667 0 30.72 13.653333 30.72 30.72-3.413333 20.48-17.066667 30.72-30.72 30.72zM651.946667 706.56H375.466667c-17.066667 0-30.72-13.653333-30.72-30.72s13.653333-30.72 30.72-30.72h276.48c17.066667 0 30.72 13.653333 30.72 30.72-3.413333 17.066667-17.066667 30.72-30.72 30.72z" p-id="16658"></path></svg>