<?xml version="1.0" standalone="no"?><!DOCTYPE svg PUBLIC "-//W3C//DTD SVG 1.1//EN" "http://www.w3.org/Graphics/SVG/1.1/DTD/svg11.dtd"><svg t="1525177338085" class="icon" style="" viewBox="0 0 1024 1024" version="1.1" xmlns="http://www.w3.org/2000/svg" p-id="5646" xmlns:xlink="http://www.w3.org/1999/xlink" width="200" height="200"><defs><style type="text/css"></style></defs><path d="M512 170.9056c-338.432 0-512 340.992-512 340.992S131.1744 852.992 512 852.992c345.088 0 512-339.7632 512-339.7632S855.552 170.9056 512 170.9056z m0.8192 554.1888c-123.6992 0-213.1968-93.184-213.1968-213.1968 0-120.0128 89.4976-213.1968 213.1968-213.1968 123.5968 0 213.1968 93.184 213.1968 213.1968 0 119.9104-89.3952 213.1968-213.1968 213.1968z m0-341.0944c-70.5536 0-127.8976 59.4944-127.8976 127.8976 0 68.4032 57.1392 127.8976 127.8976 127.8976 70.5536 0 127.8976-59.4944 127.8976-127.8976 0-68.5056-57.1392-128-127.8976-127.8976z m0 0" p-id="5647"></path></svg>