<?xml version="1.0" standalone="no"?><!DOCTYPE svg PUBLIC "-//W3C//DTD SVG 1.1//EN" "http://www.w3.org/Graphics/SVG/1.1/DTD/svg11.dtd"><svg t="1525177785131" class="icon" style="" viewBox="0 0 1024 1024" version="1.1" xmlns="http://www.w3.org/2000/svg" p-id="7575" xmlns:xlink="http://www.w3.org/1999/xlink" width="200" height="200"><defs><style type="text/css"></style></defs><path d="M544 889.6c-9.6-12.8-12.8-25.6-12.8-35.2 0-12.8 3.2-25.6 12.8-35.2 38.4-51.2 128-134.4 224-134.4V32c0-19.2-12.8-32-32-32H96c-19.2 0-32 12.8-32 32v928c0 19.2 12.8 32 32 32h560c-51.2-28.8-92.8-70.4-112-102.4zM640 480c-19.2 0-32-12.8-32-32s12.8-32 32-32 32 12.8 32 32-12.8 32-32 32zM160 96h512v96H160V96z m0 160h512v96H160V256z m352 208c0-9.6 6.4-16 16-16s16 6.4 16 16-6.4 16-16 16-16-6.4-16-16zM777.6 828.8c0-12.8 6.4-25.6 16-28.8-6.4-3.2-12.8-3.2-16-3.2-28.8 0-51.2 25.6-51.2 57.6s22.4 57.6 51.2 57.6 51.2-25.6 51.2-57.6c-6.4 6.4-12.8 9.6-22.4 9.6-16-3.2-28.8-16-28.8-35.2z" p-id="7576"></path><path d="M976 819.2c-32-44.8-112-118.4-198.4-118.4s-166.4 73.6-198.4 118.4c-6.4 9.6-12.8 22.4-12.8 32 0 9.6 3.2 22.4 12.8 32 32 44.8 112 118.4 198.4 118.4s166.4-73.6 198.4-118.4c6.4-9.6 12.8-22.4 12.8-32 0-9.6-3.2-22.4-12.8-32z m-198.4 128c-48 0-89.6-41.6-89.6-96s38.4-96 89.6-96c48 0 89.6 41.6 89.6 96s-41.6 96-89.6 96z" p-id="7577"></path></svg>